<?xml version="1.0" encoding="UTF-8" standalone="no"?>
<svg
   xmlns:dc="http://purl.org/dc/elements/1.1/"
   xmlns:cc="http://creativecommons.org/ns#"
   xmlns:rdf="http://www.w3.org/1999/02/22-rdf-syntax-ns#"
   xmlns:svg="http://www.w3.org/2000/svg"
   xmlns="http://www.w3.org/2000/svg"
   xmlns:sodipodi="http://sodipodi.sourceforge.net/DTD/sodipodi-0.dtd"
   xmlns:inkscape="http://www.inkscape.org/namespaces/inkscape"
   inkscape:version="1.0 (4035a4fb49, 2020-05-01)"
   inkscape:export-ydpi="4.7999997"
   inkscape:export-xdpi="4.7999997"
   inkscape:export-filename="D:\Videos\Dedpool\Logo.png"
   version="1.1"
   id="svg10"
   width="512"
   height="512"
   viewBox="0 0 512 512"
   sodipodi:docname="logo.svg">
  <metadata
     id="metadata16">
    <rdf:RDF>
      <cc:Work
         rdf:about="">
        <dc:format>image/svg+xml</dc:format>
        <dc:type
           rdf:resource="http://purl.org/dc/dcmitype/StillImage" />
        <dc:title></dc:title>
      </cc:Work>
    </rdf:RDF>
  </metadata>
  <defs
     id="defs14" />
  <sodipodi:namedview
     inkscape:document-rotation="0"
     inkscape:current-layer="g18"
     inkscape:window-maximized="1"
     inkscape:window-y="-9"
     inkscape:window-x="-9"
     inkscape:cy="277.769"
     inkscape:cx="308.88164"
     inkscape:zoom="2.0506097"
     showgrid="false"
     id="namedview12"
     inkscape:window-height="1001"
     inkscape:window-width="1920"
     inkscape:pageshadow="2"
     inkscape:pageopacity="0"
     guidetolerance="10"
     gridtolerance="10"
     objecttolerance="10"
     borderopacity="1"
     bordercolor="#666666"
     pagecolor="#ffffff" />
  <g
     id="g18"
     inkscape:label="Image"
     inkscape:groupmode="layer">
    <g
       transform="matrix(0.44715961,0,0,0.44715961,-182.78889,-21.985294)"
       id="g37">
      <path
         id="path41"
         d="M 857.75854,1131.357 857.5,1076.7139 844,1073.0267 C 772.12285,1053.3952 706.77348,1018.8484 646.5,968.61877 630.87237,955.5953 600.16891,924.83095 587.02379,909.0246 529.31223,839.62933 492.96997,764.09409 476.07178,678.41742 c -7.85724,-39.83757 -10.60048,-71.47728 -9.77927,-112.79164 0.74751,-37.60727 3.49834,-61.83814 11.34061,-99.89455 4.70802,-22.84674 13.6958,-53.84182 21.38017,-73.73123 1.16872,-3.025 2.71823,-7.075 3.44336,-9 2.87533,-7.6332 12.11265,-28.13549 17.79674,-39.5 30.40658,-60.79351 74.08773,-116.84053 124.24661,-159.42008 6.05,-5.13581 12.23208,-10.40344 13.73795,-11.70585 11.78952,-10.19662 47.69202,-34.64526 64.76205,-44.10121 12.16517,-6.7389 25.69355,-13.97182 29,-15.5048 1.925,-0.89249 7.775,-3.61312 13,-6.04584 54.72991,-25.481836 118.62876,-41.388114 184,-45.802931 31.98005,-2.159758 76.5171,-0.28957 109.0044,4.57728 75.4216,11.298757 143.3803,36.894711 204.8007,77.136091 36.0683,23.63115 62.1037,45.47226 94.0573,78.90461 68.1938,71.34954 115.8092,166.72035 132.5367,265.46273 6.0783,35.8803 7.1083,49.04683 7.0404,90 -0.052,31.0976 -0.3836,39.1642 -2.2434,54.5 -7.7999,64.31445 -23.4545,118.26166 -49.7665,171.5 -15.4134,31.18664 -29.1762,53.75695 -48.7669,79.97553 -53.8386,72.05321 -123.0276,127.69437 -203.6627,163.78377 -23.8629,10.6801 -56.3241,22.0113 -79.5,27.7509 -12.4583,3.0854 -15.4236,4.1785 -17.5,6.4512 -1.375,1.505 -13.9682,15.5168 -27.985,31.1375 -14.0167,15.6206 -25.9417,28.8917 -26.5,29.4914 -0.5582,0.5997 -9.7549,10.8372 -20.437,22.75 L 1000.656,1186 H 929.33656 858.01708 Z M 904,1006 c 1.99378,-1.9938 2,-3.3333 2,-430.77749 0,-386.45864 -0.15364,-428.99685 -1.5567,-431 -2.05845,-2.93884 -3.60333,-2.83402 -19.29394,1.30904 -60.66977,16.01968 -114.64445,42.65512 -159.77259,78.84462 -47.37321,37.98989 -92.84475,95.8065 -123.77181,157.37466 C 548.43835,487.59244 541.12518,597.4495 579.52047,713.5 c 16.2826,49.21446 38.76002,93.16442 67.76475,132.5 21.77082,29.5251 54.19629,61.93525 83.71478,83.67524 43.47259,32.01698 96.08856,57.71078 150,73.24906 20.50846,5.9109 20.20535,5.8704 23,3.0757 z M 798.24624,584.32332 C 798.01353,460.35283 797.90386,453.12153 796.25,452.68933 c -1.64009,-0.4286 -1.63812,-0.46461 0.0314,-0.57333 0.97977,-0.0638 1.99549,0.4465 2.25716,1.134 0.26167,0.6875 0.35835,59.975 0.21485,131.75 l -0.26092,130.5 -0.24623,-131.17668 z M 711.8125,452.31689 c 0.72187,-0.28887 1.58438,-0.25335 1.91667,0.0789 0.33229,0.33229 -0.25834,0.56864 -1.3125,0.52522 -1.16495,-0.048 -1.4019,-0.28494 -0.60417,-0.60416 z m 366.767,551.16191 c 75.7969,-20.65682 140.6906,-57.78681 193.9482,-110.97054 72.6338,-72.53305 118.2773,-162.86931 130.4073,-258.09829 11.4355,-89.77651 -4.7986,-181.44449 -46.3834,-261.90997 -42.5513,-82.33578 -98.1675,-141.50526 -173.7068,-184.8048 -27.9386,-16.01457 -68.0086,-32.28853 -103.9427,-42.2151 -14.5881,-4.02986 -19.3488,-4.38253 -20.8669,-1.54584 -0.709,1.3247 -1.0352,137.01156 -1.0352,430.56574 0,293.55418 0.3262,429.241 1.0352,430.5657 1.4987,2.8004 5.6114,2.4828 20.5443,-1.5869 z m 85.9149,-419.39549 c 0,-115.96301 0.182,-131.46484 1.5056,-131.82613 1.1067,-0.30209 1.1732,-0.17796 0.2537,0.4734 -0.9819,0.69557 -1.3012,28.65857 -1.5056,131.82613 l -0.2593,130.94329 0.01,-131.41669 z m 87.7518,0.24001 c -0.2327,-123.97049 -0.3423,-131.20179 -1.9962,-131.63399 -1.6401,-0.4286 -1.6381,-0.46461 0.031,-0.57333 0.9797,-0.0638 1.9955,0.4465 2.2571,1.134 0.2617,0.6875 0.3584,59.975 0.2149,131.75 l -0.2609,130.5 -0.2463,-131.17668 z"
         style="fill:#6343a1" />
      <path
         id="path39"
         d="m 896.5,1007.2916 c -25.84473,-6.1561 -64.04288,-20.20813 -93,-34.21218 -48.66338,-23.53427 -84.94733,-49.33299 -120.54851,-85.71274 -21.49394,-21.964 -33.78882,-37.30487 -51.18571,-63.86668 -21.10686,-32.22623 -38.92759,-69.74693 -52.24531,-110 -31.21488,-94.34757 -32.19797,-184.51534 -2.96559,-272 27.26648,-81.60125 85.16997,-166.0796 148.82189,-217.12383 45.12814,-36.1895 99.10282,-62.82494 159.77259,-78.84462 15.69061,-4.14306 17.23549,-4.24788 19.29394,-1.30904 1.40306,2.00315 1.5567,44.54136 1.5567,431 0,427.44419 -0.006,428.78369 -2,430.77749 -1.96654,1.9665 -3.53353,2.2364 -7.5,1.2916 z M 798.7537,583.95737 798.5,452.91473 754.74999,452.70737 710.99997,452.5 l 2e-5,131.25 L 711,715 h 44.0037 44.00371 z m 259.2815,421.10833 C 1057.3262,1003.741 1057,868.05418 1057,574.5 c 0,-293.55418 0.3262,-429.24104 1.0352,-430.56574 1.5181,-2.83669 6.2788,-2.48402 20.8669,1.54584 98.6087,27.24003 177.4398,80.44237 235.6233,159.0199 48.2066,65.10365 79.0218,140.82922 88.4361,217.32377 13.2713,107.83348 -11.1002,209.97399 -71.38,299.15277 -62.5447,92.52958 -147.362,153.71234 -253.002,182.50226 -14.9329,4.0697 -19.0456,4.3873 -20.5443,1.5869 z m 194.7185,-421.11773 -0.2537,-131.05204 -44,0.0279 -44,0.0279 -0.2537,131.02411 -0.2537,131.0241 h 44.5074 44.5074 l -0.2537,-131.05203 z"
         style="fill:#000000" />
    </g>
    <rect
       y="180.35443"
       x="135.14159"
       height="117.60297"
       width="39.123119"
       id="rect43"
       style="fill:#0076ff" />
    <rect
       y="180.55643"
       x="337.92847"
       height="117.40099"
       width="39.346512"
       id="rect45"
       style="fill:#0076ff" />
    <path
       id="path51"
       d="m 135.27473,239.24388 v -58.51919 h 19.26256 19.26257 v 58.51919 58.51918 h -19.26257 -19.26256 z"
       style="font-variation-settings:normal;opacity:1;vector-effect:none;fill:#ffffff;fill-opacity:1;stroke-width:0.48766;stroke-linecap:butt;stroke-linejoin:miter;stroke-miterlimit:4;stroke-dasharray:none;stroke-dashoffset:0;stroke-opacity:1;stop-color:#000000;stop-opacity:1" />
    <path
       id="path876"
       d="m 338.14123,239.24388 v -58.51919 h 19.50639 19.5064 v 58.51919 58.51918 h -19.5064 -19.50639 z"
       style="font-variation-settings:normal;opacity:1;vector-effect:none;fill:#ffffff;fill-opacity:1;stroke-width:0.48766;stroke-linecap:butt;stroke-linejoin:miter;stroke-miterlimit:4;stroke-dasharray:none;stroke-dashoffset:0;stroke-opacity:1;stop-color:#000000;stop-opacity:1" />
    <rect
       y="180.35443"
       x="135.14159"
       height="117.60297"
       width="39.123119"
       id="rect880"
       style="opacity:1;fill:#ffffff;fill-opacity:1" />
    <rect
       y="180.55643"
       x="337.92847"
       height="117.20663"
       width="39.225552"
       id="rect882"
       style="opacity:1;fill:#ffffff;fill-opacity:1" />
  </g>
</svg>
